<?xml version="1.0" encoding="UTF-8"?>
<!DOCTYPE svg PUBLIC "-//W3C//DTD SVG 1.1//EN" "http://www.w3.org/Graphics/SVG/1.1/DTD/svg11.dtd">
<!-- Creator: CorelDRAW X7 -->
<svg xmlns="http://www.w3.org/2000/svg" xml:space="preserve" width="6.24711in" height="2.14722in" version="1.1" shape-rendering="geometricPrecision" text-rendering="geometricPrecision" image-rendering="optimizeQuality" fill-rule="evenodd" clip-rule="evenodd"
viewBox="0 0 6240 2145"
 xmlns:xlink="http://www.w3.org/1999/xlink">
 <g id="Layer_x0020_1">
  <metadata id="CorelCorpID_0Corel-Layer"/>
  <g id="_2456280052624">
   <rect fill="#0096FF" stroke="white" stroke-width="13.8704" x="7" y="7" width="2131" height="2131" rx="300" ry="300"/>
   <path fill="white" stroke="white" stroke-width="6.93717" stroke-linecap="round" stroke-linejoin="round" d="M540 1427c70,100 157,175 263,221 -1,53 -2,106 -2,159 -10,136 -244,144 -260,0 -1,-127 -1,-253 -1,-380zm369 -569c-1,-96 -1,-191 -2,-286 136,-64 434,-20 575,177 39,186 -88,338 -165,395 61,-200 -146,-433 -408,-286zm-238 -625c-61,82 -122,164 -183,246 54,20 51,17 52,62 0,174 0,348 0,522 5,758 1162,696 1037,-114 -115,410 -722,545 -772,153 0,-188 -1,-376 -2,-564 1,-29 -5,-50 49,-57 -60,-83 -120,-166 -181,-248z"/>
   <path fill="white" fill-rule="nonzero" d="M3258 891l-135 0 0 469c0,136 -81,216 -212,216 -131,0 -215,-81 -215,-216l0 -469 -135 0 0 469c0,209 133,337 349,337 216,0 348,-128 348,-337l0 -469z"/>
   <path id="1" fill="white" fill-rule="nonzero" d="M3794 1078c-95,0 -169,39 -213,110l0 -105 -132 0 0 831 132 0 0 -328c44,71 118,110 215,110 174,0 288,-125 288,-306 0,-186 -118,-312 -290,-312zm-28 506c-109,0 -185,-81 -185,-199 0,-114 76,-197 185,-197 109,0 186,84 186,197 0,117 -77,199 -186,199z"/>
   <path id="2" fill="white" fill-rule="nonzero" d="M4404 1077c-117,0 -225,53 -225,176 -1,220 320,150 320,275 0,46 -44,65 -100,65 -66,0 -151,-28 -204,-75l-47 94c61,54 156,84 245,84 123,0 234,-56 234,-181 1,-220 -323,-160 -323,-272 0,-43 38,-61 89,-61 54,0 122,21 175,54l48 -97c-55,-39 -136,-62 -212,-62z"/>
   <polygon id="3" fill="white" fill-rule="nonzero" points="5000,1412 5178,1692 5334,1692 5091,1319 5317,1083 5166,1083 4897,1355 4897,843 4765,843 4765,1692 4897,1692 4897,1521 "/>
   <path id="4" fill="white" fill-rule="nonzero" d="M5506 829c-44,0 -77,33 -77,80 0,46 33,79 77,79 43,0 76,-33 76,-79 0,-47 -33,-80 -76,-80zm65 863l0 -609 -131 0 0 609 131 0z"/>
   <polygon id="5" fill="white" fill-rule="nonzero" points="5903,1692 5903,843 5771,843 5771,1692 "/>
   <polygon id="6" fill="white" fill-rule="nonzero" points="6240,1692 6240,843 6109,843 6109,1692 "/>
   <polygon fill="white" fill-rule="nonzero" points="4936,2134 4936,1878 4893,1878 4893,2062 4756,1878 4714,1878 4714,2134 4757,2134 4757,1950 4893,2134 "/>
   <path id="1" fill="white" fill-rule="nonzero" d="M5081 1938c-58,0 -99,40 -99,99 0,58 40,98 100,98 34,0 61,-12 80,-33l-22 -23c-14,14 -34,22 -55,22 -31,0 -54,-18 -60,-48l147 0c5,-71 -23,-115 -91,-115zm-57 84c5,-31 26,-51 57,-51 32,0 53,20 54,51l-111 0z"/>
   <path id="2" fill="white" fill-rule="nonzero" d="M5315 2089c-11,6 -20,9 -29,9 -13,0 -21,-7 -21,-27l0 -93 58 0 0 -31 -58 0 0 -54 -42 0 0 54 -27 0 0 31 27 0 0 101c0,40 26,57 55,57 16,0 33,-5 48,-15l-11 -32z"/>
   <polygon id="3" fill="white" fill-rule="nonzero" points="5591,2134 5662,1939 5619,1939 5569,2092 5520,1939 5477,1939 5428,2092 5377,1939 5334,1939 5406,2134 5449,2134 5498,1990 5547,2134 "/>
   <path id="4" fill="white" fill-rule="nonzero" d="M5767 1938c-60,0 -101,40 -101,99 0,58 41,98 101,98 60,0 102,-40 102,-98 0,-59 -42,-99 -102,-99zm0 36c35,0 60,26 60,63 0,38 -25,63 -60,63 -35,0 -59,-25 -59,-63 0,-37 24,-63 59,-63z"/>
   <path id="5" fill="white" fill-rule="nonzero" d="M5955 1939l-43 0 0 195 43 0 0 -102c3,-33 28,-56 67,-54l0 -40c-31,0 -54,14 -67,40l0 -39z"/>
   <polygon id="6" fill="white" fill-rule="nonzero" points="6133,2045 6190,2134 6240,2134 6163,2015 6235,1939 6186,1939 6100,2026 6100,1863 6058,1863 6058,2134 6100,2134 6100,2079 "/>
  </g>
 </g>
</svg>
