<?xml version="1.0" encoding="UTF-8"?>
<!DOCTYPE svg PUBLIC "-//W3C//DTD SVG 1.1//EN" "http://www.w3.org/Graphics/SVG/1.1/DTD/svg11.dtd">
<!-- Creator: CorelDRAW X7 -->
<svg xmlns="http://www.w3.org/2000/svg" xml:space="preserve" width="1.10567in" height="1.68842in" version="1.1" shape-rendering="geometricPrecision" text-rendering="geometricPrecision" image-rendering="optimizeQuality" fill-rule="evenodd" clip-rule="evenodd"
viewBox="0 0 1105 1688"
 xmlns:xlink="http://www.w3.org/1999/xlink">
 <g id="Layer_x0020_1">
  <metadata id="CorelCorpID_0Corel-Layer"/>
  <path fill="white" stroke="white" stroke-width="6.94204" stroke-linecap="round" stroke-linejoin="round" d="M55 1198c70,101 158,175 263,222 -1,53 -2,106 -2,159 -10,136 -244,144 -260,0 -1,-127 -1,-254 -1,-381zm369 -569c0,-95 -1,-191 -1,-286 136,-64 434,-20 575,177 39,187 -88,338 -165,395 60,-200 -147,-433 -409,-286zm-237 -626c-61,83 -122,165 -184,247 54,20 51,17 52,62 0,174 0,348 0,522 5,759 1163,697 1038,-113 -116,409 -723,545 -773,152 0,-188 -1,-376 -1,-564 1,-29 -6,-50 48,-57 -60,-83 -120,-166 -180,-249z"/>
 </g>
</svg>
